<?xml version="1.0" standalone="no"?>
<!DOCTYPE svg PUBLIC "-//W3C//DTD SVG 20010904//EN"
 "http://www.w3.org/TR/2001/REC-SVG-20010904/DTD/svg10.dtd">
<svg version="1.0" xmlns="http://www.w3.org/2000/svg"
 width="906.000000pt" height="412.000000pt" viewBox="0 0 906.000000 412.000000"
 preserveAspectRatio="xMidYMid meet">

<g transform="translate(0.000000,412.000000) scale(0.100000,-0.100000)"
fill="#fff" stroke="none">
<path d="M2383 3645 c-187 -52 -334 -218 -363 -410 -18 -113 9 -242 70 -339
17 -26 30 -50 30 -54 0 -3 -30 -37 -66 -73 l-66 -67 -78 53 c-85 58 -159 89
-265 112 -91 20 -275 12 -360 -15 -252 -80 -442 -279 -506 -532 -18 -72 -21
-103 -16 -210 6 -139 23 -205 85 -325 44 -84 187 -233 274 -283 249 -146 590
-128 812 42 l49 38 69 -70 70 -69 -27 -43 c-129 -204 -102 -464 64 -630 69
-69 133 -108 220 -132 173 -48 358 0 487 127 199 195 202 513 7 708 -105 105
-206 147 -357 147 -116 0 -194 -23 -282 -81 l-41 -28 -66 67 c-37 37 -67 71
-67 75 0 5 16 29 36 55 46 60 98 169 120 252 27 99 25 273 -4 373 -25 87 -75
190 -124 255 l-32 43 70 70 71 71 44 -31 c95 -67 258 -97 382 -71 143 29 280
138 347 274 42 86 59 206 43 303 -29 168 -153 319 -314 383 -71 29 -240 37
-316 15z m280 -105 c107 -41 197 -131 238 -239 26 -70 28 -185 5 -262 -33
-112 -132 -217 -243 -259 -72 -27 -219 -28 -283 -3 -114 45 -202 131 -242 236
-33 88 -33 219 1 297 50 118 135 196 256 239 76 27 184 24 268 -9z m-1043
-766 c191 -44 315 -128 417 -282 79 -118 108 -230 100 -387 -7 -157 -52 -268
-158 -390 -109 -126 -254 -198 -435 -213 -192 -17 -355 42 -493 178 -67 66
-151 184 -151 211 0 5 -4 17 -10 27 -16 29 -40 170 -40 236 0 57 24 169 52
241 25 65 93 157 160 220 81 75 179 127 284 151 38 8 80 19 94 23 30 10 93 5
180 -15z m1056 -1278 c164 -75 250 -217 242 -398 -7 -155 -85 -270 -232 -345
-58 -29 -176 -44 -250 -30 -117 21 -232 111 -288 225 -31 63 -33 72 -33 177 0
104 2 113 32 170 59 112 148 188 260 221 75 21 198 12 269 -20z"/>
<path d="M3045 2541 c-193 -32 -325 -125 -400 -283 -116 -245 -61 -432 147
-498 62 -20 92 -23 203 -22 72 0 152 7 179 14 l49 13 24 69 c12 39 23 73 23
77 0 4 -17 2 -37 -4 -21 -6 -101 -11 -178 -11 -127 -1 -144 1 -182 22 -81 42
-101 114 -64 225 42 127 101 190 212 228 104 35 211 31 374 -16 18 -5 24 3 44
65 12 40 20 74 17 77 -3 3 -35 14 -72 24 -75 21 -264 32 -339 20z"/>
<path d="M3935 2539 c-169 -22 -290 -112 -368 -272 -47 -96 -67 -174 -67 -257
0 -181 138 -276 400 -273 285 2 443 117 531 388 28 85 31 201 6 257 -58 129
-255 191 -502 157z m240 -165 c45 -23 75 -74 75 -125 0 -103 -85 -267 -165
-318 -107 -68 -289 -62 -350 10 -63 76 -3 299 106 393 22 18 63 41 92 50 70
21 191 16 242 -10z"/>
<path d="M4865 2540 c-126 -17 -126 -17 -156 -98 -17 -45 -22 -72 -15 -72 6 1
40 7 76 15 86 19 250 19 295 1 46 -20 60 -49 46 -97 -16 -52 -69 -95 -209
-168 -250 -130 -348 -184 -369 -203 -22 -20 -56 -90 -68 -140 l-7 -28 359 0
359 0 22 63 c12 34 22 68 22 74 0 10 -53 13 -215 15 l-214 3 176 90 c248 126
326 189 353 286 47 163 -51 254 -283 264 -56 2 -133 0 -172 -5z"/>
<path d="M5649 2503 c-27 -72 -262 -720 -267 -736 -4 -16 15 -17 329 -15 l334
3 22 60 c12 33 22 66 22 73 1 9 -49 12 -217 12 -120 0 -221 2 -224 5 -4 5 51
165 175 503 l44 122 -104 0 -103 0 -11 -27z"/>
<path d="M6744 2511 c-17 -10 -96 -106 -175 -212 -269 -360 -399 -537 -399
-543 0 -3 47 -6 104 -6 l105 0 61 85 62 85 186 -2 187 -3 3 -82 3 -83 100 0
99 0 -5 78 c-6 86 -25 580 -25 655 l0 47 -137 0 c-118 0 -143 -3 -169 -19z
m126 -283 l0 -168 -131 0 c-101 0 -130 3 -126 13 2 6 58 87 123 180 79 113
120 163 126 155 4 -7 8 -88 8 -180z"/>
<path d="M7508 2483 c-9 -26 -71 -196 -137 -378 -67 -181 -121 -336 -121 -343
0 -11 61 -13 338 -10 370 5 391 8 464 68 78 64 104 197 51 261 -15 17 -41 37
-58 45 -27 11 -28 13 -10 19 107 33 167 94 187 189 10 47 9 57 -11 99 -17 35
-33 51 -69 69 -45 22 -58 23 -333 26 l-286 3 -15 -48z m460 -104 c71 -25 45
-126 -41 -158 -16 -6 -91 -11 -169 -11 -118 0 -139 2 -135 14 3 8 18 49 33 90
l27 76 127 0 c70 0 141 -5 158 -11z m-80 -310 c43 -15 58 -55 38 -102 -25 -61
-57 -70 -248 -75 -193 -5 -182 -12 -143 94 14 38 28 75 30 82 6 15 278 17 323
1z"/>
</g>
</svg>
